# xmcd CD database file
#
# Track frame offsets:
#	150
#	54787
#	71219
#	94765
#	132419
#	184025
#	216661
#	286725
#	299475
#
# Disc length: 4460 seconds
#
# Revision: 1
# Processed by: cddbd v1.4PL0 Copyright (c) Steve Scherf et al.
# Submitted via: CDex 1.50beta8
#
DISCID=91116a09
DTITLE=Various Artist - Freedom of the City 2001 - Small Groups (1/2)
DYEAR=2001
DGENRE=Jazz
TTITLE0=SMIBRAMAR A
TTITLE1=SMIBRAMAR B
TTITLE2=SMIBRAMAR C
TTITLE3=WESEDSAN A
TTITLE4=WESEDSAN B
TTITLE5=WESEDSAN C
TTITLE6=NICKRAHUG A
TTITLE7=NICKRAHUG B
TTITLE8=NICKRAHUG C
EXTD=YEAR: 2001
EXTT0=
EXTT1=
EXTT2=
EXTT3=
EXTT4=
EXTT5=
EXTT6=
EXTT7=
EXTT8=
PLAYORDER=
